<svg width="18" height="18" viewBox="0 0 18 18" fill="none" xmlns="http://www.w3.org/2000/svg">
<path fill-rule="evenodd" clip-rule="evenodd" d="M6 5.25C6 3.59315 7.34315 2.25 9 2.25C10.6569 2.25 12 3.59315 12 5.25C12 6.90685 10.6569 8.25 9 8.25C7.34315 8.25 6 6.90685 6 5.25ZM9 0.75C6.51472 0.75 4.5 2.76472 4.5 5.25C4.5 7.73528 6.51472 9.75 9 9.75C11.4853 9.75 13.5 7.73528 13.5 5.25C13.5 2.76472 11.4853 0.75 9 0.75ZM3.30664 16.5C3.30664 14.1484 5.70703 12 8.99916 12C9.41337 12 9.74916 11.6642 9.74916 11.25C9.74916 10.8358 9.41337 10.5 8.99916 10.5C5.18129 10.5 1.80664 13.0466 1.80664 16.5C1.80664 16.9142 2.14243 17.25 2.55664 17.25C2.97085 17.25 3.30664 16.9142 3.30664 16.5ZM13.65 12C12.7387 12 12 12.7387 12 13.65C12 14.5613 12.7387 15.3 13.65 15.3C14.5613 15.3 15.3 14.5613 15.3 13.65C15.3 12.7387 14.5613 12 13.65 12ZM10.5 13.65C10.5 11.9103 11.9103 10.5 13.65 10.5C15.3897 10.5 16.8 11.9103 16.8 13.65C16.8 14.248 16.6334 14.8071 16.344 15.2834L17.0303 15.9697C17.3232 16.2626 17.3232 16.7374 17.0303 17.0303C16.7374 17.3232 16.2626 17.3232 15.9697 17.0303L15.2834 16.344C14.8071 16.6334 14.248 16.8 13.65 16.8C11.9103 16.8 10.5 15.3897 10.5 13.65Z" fill="#1C1C1C"/>
</svg>
